<?xml version="1.0" encoding="utf-8"?>
<!DOCTYPE svg PUBLIC "-//W3C//DTD SVG 1.1//EN" "http://www.w3.org/Graphics/SVG/1.1/DTD/svg11.dtd">
<svg version="1.1" id="Layer_1" xmlns="http://www.w3.org/2000/svg" xmlns:xlink="http://www.w3.org/1999/xlink" x="0px" y="0px"
	 width="123px" height="115px" viewBox="0 0 123 115" enable-background="new 0 0 123 115" xml:space="preserve">
<g id="Group" transform="translate(0.240601, 0.072266)">
	<path fill="#F49C12" d="M61.126,44.986c-0.457,0-0.915-0.156-1.287-0.469c-1.919-1.612-18.833-15.973-21.666-23.668
		c-3.108-8.441,0.211-17.461,7.398-20.108C46.907,0.249,48.311,0,49.745,0c4.238,0,8.397,2.16,11.38,5.785
		C64.108,2.16,68.267,0,72.505,0c1.434,0,2.838,0.249,4.173,0.741c3.549,1.307,6.261,4.165,7.637,8.049
		c1.329,3.752,1.244,8.035-0.237,12.06c-2.833,7.695-19.746,22.056-21.666,23.668C62.04,44.83,61.583,44.986,61.126,44.986z
		 M49.745,4c-0.961,0-1.9,0.167-2.792,0.495c-5.118,1.884-7.373,8.601-5.026,14.973c1.929,5.238,13.507,15.975,19.199,20.89
		c5.691-4.915,17.27-15.652,19.198-20.89c1.16-3.151,1.238-6.469,0.221-9.342c-0.972-2.743-2.835-4.742-5.248-5.63
		C74.406,4.167,73.466,4,72.505,4c-3.714,0-7.41,2.41-9.647,6.289c-0.357,0.619-1.018,1.001-1.732,1.001s-1.375-0.381-1.732-1.001
		C57.156,6.41,53.459,4,49.745,4z"/>
	<path fill="#939393" d="M119.502,47.999c-3.989-3.991-10.486-3.993-14.481,0L89.047,63.972c-1.875-2.403-4.799-3.951-8.076-3.951
		H35.983c-3.175,0-6.169,1.229-8.431,3.46L0.595,90.093C0.216,90.467,0.002,90.977,0,91.51s0.209,1.044,0.587,1.421l21.336,21.309
		c0.389,0.389,0.901,0.585,1.414,0.585c0.48,0,0.961-0.172,1.344-0.519l15.106-13.71c1.476-1.339,3.385-2.076,5.376-2.076h33.769
		c3.188,0,6.302-1.302,8.543-3.572l32.027-32.468C123.492,58.489,123.492,51.994,119.502,47.999z M116.664,59.661L84.628,92.138
		c-1.494,1.514-3.57,2.382-5.696,2.382H45.163c-2.987,0-5.851,1.105-8.064,3.113l-13.696,12.431L4.839,91.523l25.524-25.196
		c1.507-1.487,3.503-2.307,5.621-2.307H80.97c2.603,0,4.838,1.602,5.773,3.87c0.016,0.046,0.034,0.092,0.054,0.137
		c0.267,0.693,0.413,1.446,0.413,2.232c0,3.44-2.8,6.24-6.24,6.24H54.6c-1.104,0-2,0.896-2,2s0.896,2,2,2h26.37
		c5.646,0,10.24-4.594,10.24-10.24c0-0.858-0.106-1.692-0.306-2.489l16.943-16.944c2.433-2.432,6.392-2.434,8.824,0
		C119.104,53.261,119.105,57.22,116.664,59.661z"/>
</g>
</svg>
