<?xml version="1.0" encoding="utf-8"?>
<!-- Generator: Adobe Illustrator 17.0.0, SVG Export Plug-In . SVG Version: 6.00 Build 0)  -->
<!DOCTYPE svg PUBLIC "-//W3C//DTD SVG 1.1//EN" "http://www.w3.org/Graphics/SVG/1.1/DTD/svg11.dtd">
<svg version="1.1" id="Layer_1" xmlns="http://www.w3.org/2000/svg" xmlns:xlink="http://www.w3.org/1999/xlink" x="0px" y="0px"
	 width="123px" height="115px" viewBox="0 0 123 115" enable-background="new 0 0 123 115" xml:space="preserve">
<g id="Group" transform="translate(0.240601, 0.072266)">
	<path fill="#F49C12" d="M84.315,8.79c-1.376-3.884-4.088-6.742-7.637-8.049C75.343,0.249,73.939,0,72.505,0
		c-4.238,0-8.397,2.16-11.38,5.785C58.143,2.16,53.983,0,49.745,0c-1.434,0-2.838,0.249-4.174,0.741
		c-7.188,2.647-10.506,11.667-7.398,20.108c2.833,7.695,19.747,22.056,21.666,23.668c0.372,0.312,0.83,0.469,1.287,0.469
		s0.914-0.156,1.286-0.469c1.92-1.612,18.833-15.973,21.666-23.668C85.559,16.824,85.644,12.542,84.315,8.79z M80.324,19.467
		c-1.929,5.238-13.507,15.975-19.198,20.89c-5.691-4.915-17.27-15.652-19.199-20.89c-2.346-6.372-0.091-13.088,5.026-14.973
		C47.845,4.167,48.784,4,49.745,4c3.714,0,7.411,2.41,9.648,6.289c0.357,0.62,1.018,1.001,1.732,1.001s1.375-0.382,1.732-1.001
		C65.095,6.41,68.792,4,72.505,4c0.961,0,1.9,0.167,2.791,0.495c2.413,0.888,4.276,2.888,5.248,5.63
		C81.562,12.999,81.484,16.316,80.324,19.467z"/>
	<path fill="#979CA5" d="M119.502,47.999c-3.989-3.991-10.486-3.993-14.481,0L89.047,63.972c-1.875-2.403-4.799-3.951-8.076-3.951
		H35.983c-3.175,0-6.169,1.229-8.431,3.46L0.595,90.093C0.216,90.467,0.002,90.977,0,91.51s0.209,1.044,0.587,1.421l21.336,21.309
		c0.389,0.389,0.901,0.585,1.414,0.585c0.48,0,0.961-0.172,1.344-0.519l15.106-13.71c1.476-1.339,3.385-2.076,5.376-2.076h33.769
		c3.188,0,6.302-1.302,8.543-3.572l32.027-32.468C123.492,58.489,123.492,51.994,119.502,47.999z M116.664,59.661L84.628,92.138
		c-1.494,1.514-3.57,2.382-5.696,2.382H45.163c-2.987,0-5.851,1.105-8.064,3.113l-13.696,12.431L4.839,91.523l25.524-25.196
		c1.507-1.487,3.503-2.307,5.621-2.307H80.97c2.603,0,4.838,1.602,5.773,3.87c0.016,0.046,0.034,0.092,0.054,0.137
		c0.267,0.693,0.413,1.446,0.413,2.232c0,3.44-2.8,6.24-6.24,6.24h-26.37c-1.104,0-2,0.896-2,2s0.896,2,2,2h26.37
		c5.646,0,10.24-4.594,10.24-10.24c0-0.858-0.106-1.692-0.306-2.489l16.943-16.944c2.433-2.432,6.392-2.434,8.824,0
		C119.104,53.261,119.105,57.22,116.664,59.661z"/>
</g>
</svg>
