<?xml version="1.0" encoding="utf-8"?><svg xmlns="http://www.w3.org/2000/svg" xmlns:xlink="http://www.w3.org/1999/xlink" style="isolation:isolate" viewBox="0 0 50 45" width="50" height="45"><g><path d=" M 24.119 44.986 C 23.662 44.986 23.204 44.83 22.832 44.517 C 20.913 42.905 3.999 28.544 1.166 20.849 C -1.942 12.408 1.377 3.388 8.564 0.741 C 9.9 0.249 11.304 0 12.738 0 C 16.976 0 21.135 2.16 24.118 5.785 C 27.101 2.16 31.26 0 35.498 0 C 36.932 0 38.336 0.249 39.671 0.741 C 43.22 2.048 45.932 4.906 47.308 8.79 C 48.637 12.542 48.552 16.825 47.071 20.85 C 44.238 28.545 27.325 42.906 25.405 44.518 C 25.033 44.83 24.576 44.986 24.119 44.986 Z  M 12.738 4 C 11.777 4 10.838 4.167 9.946 4.495 C 4.828 6.379 2.573 13.096 4.92 19.468 C 6.849 24.706 18.427 35.443 24.119 40.358 C 29.81 35.443 41.389 24.706 43.317 19.468 C 44.477 16.317 44.555 12.999 43.538 10.126 C 42.566 7.383 40.703 5.384 38.29 4.496 C 37.399 4.167 36.459 4 35.498 4 C 31.784 4 28.088 6.41 25.851 10.289 C 25.494 10.908 24.833 11.29 24.119 11.29 C 23.405 11.29 22.744 10.909 22.387 10.289 C 20.149 6.41 16.452 4 12.738 4 Z " fill="rgb(255,255,255)"/></g></svg>