<?xml version="1.0" encoding="utf-8"?>
<!DOCTYPE svg PUBLIC "-//W3C//DTD SVG 1.1//EN" "http://www.w3.org/Graphics/SVG/1.1/DTD/svg11.dtd">
<svg version="1.1" id="Layer_1" xmlns="http://www.w3.org/2000/svg" xmlns:xlink="http://www.w3.org/1999/xlink" x="0px" y="0px"
	 width="27px" height="27px" viewBox="0 0 27 27" enable-background="new 0 0 27 27" xml:space="preserve">
<g>
	<polygon fill="#3E434D" points="8.5,19.288 11.441,19.288 11.441,25.5 15.441,25.5 15.441,19.288 18.5,19.288 13.5,13.5 	"/>
	<path fill="#3E434D" d="M22.468,11.698C22.489,11.467,22.5,11.234,22.5,11c0-4.142-3.358-7.5-7.5-7.5
		c-3.629,0-6.672,2.583-7.356,6.032C7.431,9.511,7.216,9.5,7,9.5c-3.59,0-6.5,2.91-6.5,6.5s2.91,6.5,6.5,6.5v-2
		c-2.485,0-4.5-2.015-4.5-4.5s2.015-4.5,4.5-4.5c0.422,0,0.836,0.058,1.233,0.171l1.217,0.346l0.056-1.264
		C9.635,7.821,12.054,5.5,15,5.5c3.038,0,5.5,2.462,5.5,5.5c0,0.436-0.05,0.864-0.149,1.28l-0.273,1.146l1.175,0.083
		C23.076,13.638,24.5,15.161,24.5,17c0,1.933-1.567,3.5-3.5,3.5h-1.585v2H21c3.038,0,5.5-2.462,5.5-5.5
		C26.5,14.482,24.802,12.342,22.468,11.698z"/>
</g>
</svg>
